inDegrees=yes
name=ik_S53_A01_T02
DataType=double
version=3
OpenSimVersion=4.3-2021-08-27-4bc7ad9
endheader
time	pelvis_tilt	pelvis_list	pelvis_rotation	pelvis_tx	pelvis_ty	pelvis_tz	hip_flexion_r	hip_adduction_r	hip_rotation_r	knee_angle_r	knee_angle_r_beta	ankle_angle_r	subtalar_angle_r	mtp_angle_r	hip_flexion_l	hip_adduction_l	hip_rotation_l	knee_angle_l	knee_angle_l_beta	ankle_angle_l	subtalar_angle_l	mtp_angle_l	lumbar_extension	lumbar_bending	lumbar_rotation	arm_flex_r	arm_add_r	arm_rot_r	elbow_flex_r	pro_sup_r	wrist_flex_r	wrist_dev_r	arm_flex_l	arm_add_l	arm_rot_l	elbow_flex_l	pro_sup_l	wrist_flex_l	wrist_dev_l
12.45999999999982	0.8986934289180458	5.873836967425229	89.56925958580395	0	0.9399999999999999	0	11.56624895185841	2.097105505897215	-2.413976055115993	7.479684673980882	0.130545124571925	0	0	0	-10.07743272326866	-2.561675084826661	-14.62162363849459	33.95928610740471	0.5927013542009808	0	0	0	0	0	0	35.0366001784862	-35.0366001784862	4.623612878032989	79.57917782516678	85.37638737931029	0	0	35.0366001784862	-35.0366001784862	4.623612878032989	79.57917782516678	85.37638737924027	0	0
12.47999999999982	1.358350980178673	6.522994601370576	89.7684841931317	0	0.9399999999999999	0	9.288907182246474	2.095122507133412	-2.239212123375559	5.952071453451808	0.1038832441766985	0	0	0	-9.576748291258294	-4.88274044749428	-16.0300241581164	39.63329572480588	0.6917315038144549	0	0	0	0	0	0	35.04149903241767	-35.04149903241767	4.623982771245291	79.58452216036601	85.37601748611637	0	0	35.04149903241767	-35.04149903241767	4.623982771245291	79.58452216036601	85.37601748604646	0	0
12.49999999999982	1.832276412559763	7.12837028286072	90.37900994791158	0	0.9399999999999999	0	7.314872270139786	2.599196365126299	-3.048741293286082	4.711640498243846	0.08223363986466123	0	0	0	-8.656252929962051	-7.680438104655679	-16.27150582164121	47.16946018573198	0.823262386629399	0	0	0	0	0	0	35.14286784491244	-35.14286784491244	4.630490238207301	79.67838669426794	85.36951001946956	0	0	35.14286784491244	-35.14286784491244	4.630490238207301	79.67838669426794	85.36951001940091	0	0
12.51999999999982	2.439959139844943	7.838444866838216	91.35836686606341	0	0.9399999999999999	0	5.439518621711594	3.580678565153198	-4.117017745218387	3.520077001150769	0.06143693359380915	0	0	0	-9.220716537303618	-8.452976237015232	-15.29474685563296	48.70935051056802	0.8501385429173929	0	0	0	0	0	0	35.1452566341572	-35.1452566341572	4.630669087883268	79.68097038791932	85.36933116980245	0	0	35.1452566341572	-35.1452566341572	4.630669087883268	79.68097038791932	85.36933116973383	0	0
12.53999999999982	3.15744030461395	8.310652135970752	92.55028820055486	0	0.9399999999999999	0	3.933442702374754	4.431671193981763	-5.754555506921458	2.547277200512265	0.04445837410992281	0	0	0	-4.659487999771203	-11.99029909471758	-11.68641610071273	56.63956895452665	0.9885469651668525	0	0	0	0	0	0	35.21924464790903	-35.21924464790903	4.63538794569991	79.74903204202127	85.36461231221422	0	0	35.21924464790903	-35.21924464790903	4.63538794569991	79.74903204202127	85.36461231214646	0	0
12.55999999999982	4.043119496354701	8.462120031935825	93.64525594298009	0	0.9399999999999999	0	2.755309220701301	5.522477267977237	-8.185680151778048	6.789127816620701	0.118492633738765	0	0	0	-4.620768379073084	-13.3115559492657	-10.78866134444496	57.63020253983598	1.005836782911336	0	0	0	0	0	0	35.36286400625882	-35.36286400625882	4.644433246615699	79.87947688448104	85.3555670117351	0	0	35.36286400625882	-35.36286400625882	4.644433246615699	79.87947688448104	85.35556701166902	0	0
12.57999999999982	4.929558544770432	8.473003358139964	94.31329174689658	0	0.9399999999999999	0	1.872300154152064	6.244551472823832	-9.826657983173336	6.080012150545783	0.1061162305882851	0	0	0	-0.6880734864482303	-15.56748372379407	-9.535538273261549	60.93614732450144	1.063536404292884	0	0	0	0	0	0	35.41287321286607	-35.41287321286607	4.64757747145401	79.92481995869935	85.35242278704851	0	0	35.41287321286607	-35.41287321286607	4.64757747145401	79.92481995869935	85.35242278698307	0	0
12.59999999999982	5.833260445448163	8.469843694723489	94.43269974423737	0	0.9399999999999999	0	0.953762117239857	7.286780157129432	-10.88155864491829	6.447624931351396	0.1125322839857552	0	0	0	1.810132446607511	-17.24032666277395	-9.385084090920399	62.03977297270553	1.082798305563502	0	0	0	0	0	0	35.45841881884881	-35.45841881884881	4.65042097714926	79.96582325775526	85.34957928149034	0	0	35.45841881884881	-35.45841881884881	4.65042097714926	79.96582325775526	85.34957928142538	0	0
12.61999999999982	5.848189812102323	8.466303592722289	94.42425696489745	0	0.9399999999999999	0	0.0190944711968906	7.495037606980884	-11.23676033082077	6.503455940538947	0.1135067189207892	0	0	0	4.172872322702806	-17.66021385661034	-9.141789567732957	62.23922876046002	1.086279465771977	0	0	0	0	0	0	35.49486651084052	-35.49486651084052	4.652686765731897	79.99849472536424	85.3473134930168	0	0	35.49486651084052	-35.49486651084052	4.652686765731897	79.99849472536424	85.34731349295228	0	0
12.63999999999982	6.751636838419617	8.275042398070605	93.95601572515164	0	0.9399999999999999	0	-0.5606197518189233	8.666692477347421	-11.09141885705517	6.574577913795691	0.1147480315246347	0	0	0	6.879191752351083	-18.52381011311822	-8.589713641788094	61.87629700424069	1.079945111665904	0	0	0	0	0	0	35.53191225389305	-35.53191225389305	4.655006774864582	80.0319503616123	85.34499348399605	0	0	35.53191225389305	-35.53191225389305	4.655006774864582	80.0319503616123	85.34499348393193	0	0
